<svg width="707" height="604" viewBox="0 0 707 604" fill="none" xmlns="http://www.w3.org/2000/svg">
<path d="M353.184 0C548.242 0 706.367 158.126 706.367 353.184C706.367 436.46 677.545 513.005 629.333 573.387C612.878 593.996 587.042 604 560.669 604H145.698C119.326 604 93.4897 593.996 77.0342 573.387C28.8218 513.005 0 436.46 0 353.184C8.24674e-05 158.126 158.126 8.25103e-05 353.184 0ZM351.635 300.516C272.072 300.516 207.573 365.015 207.573 444.578C207.573 524.141 272.072 588.64 351.635 588.64C431.198 588.64 495.696 524.141 495.696 444.578C495.696 365.015 431.198 300.516 351.635 300.516Z" fill="url(#paint0_linear_576_44)"></path>
<defs>
<linearGradient id="paint0_linear_576_44" x1="353.184" y1="0" x2="353.184" y2="604" gradientUnits="userSpaceOnUse">
<stop stop-color="#FCB427"></stop>
<stop offset="1" stop-color="#966B17"></stop>
</linearGradient>
</defs>
</svg>